<?xml version="1.0" encoding="utf-8"?>
<!-- Generator: Adobe Illustrator 18.0.0, SVG Export Plug-In . SVG Version: 6.00 Build 0)  -->
<!DOCTYPE svg PUBLIC "-//W3C//DTD SVG 1.1//EN" "http://www.w3.org/Graphics/SVG/1.1/DTD/svg11.dtd">
<svg version="1.1" id="Layer_1" xmlns="http://www.w3.org/2000/svg" xmlns:xlink="http://www.w3.org/1999/xlink" x="0px" y="0px"
	 viewBox="171.7 376.7 263.3 28.7" enable-background="new 171.7 376.7 263.3 28.7" xml:space="preserve">
<g>
	<path fill="#E30918" d="M422.8,377.4c2.2,0,3.6,0,5.7,0c2,0,3.5,0.9,3.5,2.7c0,1.8-1.5,2.7-3,2.7c-1.5,0-4.2,0-5.9,0
		c-1.7,0-3.3-1.1-3.3-2.5C419.8,378.7,420.6,377.4,422.8,377.4z"/>
	<path fill="#E30918" d="M432,384.3c0,0,0,14.6,0,16.1c0,1.5,1.5,3.6,1.5,3.6h-13.7c0,0,0-12.8,0-15s-2.1-4.7-2.1-4.7H432z"/>
	<path fill="#E30918" d="M384.3,404v-19.7c0,0,21.3-0.1,23.4-0.1c4.8,0,8.1,2.5,8.1,6.9c0,5.6-0.1,6.7-0.1,8.6
		c0,1.9,1.7,4.2,1.7,4.2s-6.6,0-9.2,0c-2.5,0-4.9-0.9-4.9-4.1c0-3.3-0.1-10.2-0.1-10.8c0-0.6-0.5-2-1.9-2c-1.8,0-4.6,2.6-4.6,5.2
		s0,6.7,0,8.4c0,1.7,1.7,3.5,1.7,3.5L384.3,404z"/>
	<path fill="#E30918" d="M362.5,389.4c0,0,3.4,0,4.7,0s1.9,0.9,1.9,1.7c0,0.8-0.6,1.7-3,1.7s-3.6-1-3.6-1V389.4z M381.3,395.5
		c0,0,0.1-3.9,0.1-5.9c0-2-1.8-5.5-5.9-5.5s-15.6-0.1-18.3-0.1c-4.4,0-6.8,2.4-6.8,6.3s-0.1,5.7-0.1,7.7s0.7,5.8,6.6,5.8
		c5.9,0,14.3,0,16.4,0s5,0.2,6.5-1.6c1.4-1.7,1.5-4.4,1.5-4.4h-11.8c0,0-0.7,2.4-3.9,2.4c-3.3,0-3.3-2.5-3.3-3.5c0-1,0-4.8,0-4.8
		s2.5,3.3,4.4,3.4C368.1,395.6,381.3,395.5,381.3,395.5z"/>
	<path fill="#E30918" d="M331.2,389.4c1.6,0,3.3,1.4,3.3,5s-1.6,4.9-3.6,4.9c-2,0-3-1.6-3-3.3s-0.1-6.3-0.1-6.3
		S329.5,389.4,331.2,389.4z M323.9,404c3.7,0,3.9-3.7,3.9-3.7s2.5,3.8,10.3,3.8c5.4,0,9.2-3.2,9.2-10.9c0-7.7-6.8-9.1-9.1-9.1
		c-2.4,0-10.8,0-10.8,0v-6.3h-14.2c0,0,2,2.4,2,7.2c0,2.8,0,19,0,19S320.2,404,323.9,404z"/>
	<path fill="#E30918" d="M312.2,384.3V404c0,0-20.8-0.1-23.6-0.1c-3.3,0-7.3-2.3-7.3-6.8s-0.1-7.9-0.1-8.9c0-2.4-1.6-4.1-1.6-4.1
		s8.7,0,10.2,0c1.5,0,3.6,0.8,3.6,2.8c0,2,0,9.7,0,11.3s0.7,3.1,2.1,3.1c1.7,0,4.5-2.2,4.5-4.5c0-2.4,0-7.6,0-8.7c0-2.1-1.1-4-1.1-4
		L312.2,384.3z"/>
	<path fill="#E30918" d="M257.6,384.3V404h12.9c0,0-1.2-2.7-1.2-5.3s-0.2-8.9,0.7-9.4c0.9-0.5,2.1,0.4,2.5,2.6s-1,5.1-1,5.1l8.7-3.1
		c0,0,0.7-6-2-7.9c-2.8-1.9-4.9-1.7-6.4-1.7C270.2,384.3,257.6,384.3,257.6,384.3z"/>
	<path fill="#E30918" d="M241.7,389.4c0,0,0.1,5.2,0.1,6.5c0,1.2-0.9,3-3.3,3c-2.4,0-3.3-2-3.3-4.7c0-2.8,1.6-4.4,3.3-4.6
		C240.5,389.3,241.7,389.4,241.7,389.4z M231.5,384.2c-2.4,0-8.6,1.5-8.6,9.8c0,7.8,5,10,11,10s7.7-3.4,7.7-3.4
		c1,2.6,2.5,3.3,4.4,3.3s9.4,0,9.4,0s-1.3-3.4-1.3-4.9c0-1.5-0.1-14.8-0.1-14.8S233.9,384.2,231.5,384.2z"/>
	<path fill="#E30918" d="M173.2,377.7c0,0,1.4,1.2,1.9,3.3c0.5,2.1,0.5,4,0.5,5.6s0,17.2,0,17.2h14.7c0,0-1-1.5-1.1-2.8
		c-0.1-1.2,0-9.2,0-9.2s4,7.8,4.6,9.2c0.7,1.4,1.7,2.8,2.8,2.8c1,0,2.5,0,3.3,0c0.9,0,1.7-0.7,2.5-2c0.7-1.4,4.9-10.4,4.9-10.4V404
		h14.7c0,0-1.1-2.4-1.1-4.1c0-1.7,0.1-14.8,0.1-16.4c0-1.6-2-5.6-5.4-5.6c-3.3,0-6.3-0.1-8-0.1c-1.6,0-3.6,1.5-4.4,3.2
		c-0.7,1.6-4.6,10.5-4.6,10.5s-4-8.9-4.7-10.3c-0.7-1.5-2.1-3.3-5-3.3C186,377.7,173.2,377.7,173.2,377.7z"/>
</g>
</svg>
